<?xml version="1.0" encoding="UTF-8"?>
<!DOCTYPE svg PUBLIC "-//W3C//DTD SVG 1.1//EN" "http://www.w3.org/Graphics/SVG/1.1/DTD/svg11.dtd">
<svg xmlns="http://www.w3.org/2000/svg" version="1.1" width="120px" height="99px" style="shape-rendering:geometricPrecision; text-rendering:geometricPrecision; image-rendering:optimizeQuality; fill-rule:evenodd; clip-rule:evenodd" xmlns:xlink="http://www.w3.org/1999/xlink">
<g><path style="opacity:0.782" fill="#e21e24" d="M 23.5,-0.5 C 28.5,-0.5 33.5,-0.5 38.5,-0.5C 47.7139,3.29153 54.7139,9.62486 59.5,18.5C 64.3506,9.64269 71.3506,3.30936 80.5,-0.5C 85.5,-0.5 90.5,-0.5 95.5,-0.5C 107.998,3.99847 115.998,12.6651 119.5,25.5C 119.5,33.5 119.5,41.5 119.5,49.5C 118.596,50.209 118.263,51.209 118.5,52.5C 117.167,52.5 115.833,52.5 114.5,52.5C 115.965,42.7995 115.799,33.1329 114,23.5C 108.77,9.26929 98.6037,2.76929 83.5,4C 68.9734,8.85851 61.6401,19.0252 61.5,34.5C 60.1667,34.5 58.8333,34.5 57.5,34.5C 56.6514,13.8143 45.9847,3.64765 25.5,4C 9.65548,9.38058 2.32214,20.5472 3.5,37.5C 4.05014,56.0995 12.0501,70.5995 27.5,81C 37.1953,87.7339 47.862,92.2339 59.5,94.5C 76.9404,91.207 91.6071,83.0403 103.5,70C 104.793,69.51 106.127,69.3433 107.5,69.5C 107.657,70.8734 107.49,72.2068 107,73.5C 95.1478,85.8401 80.9811,94.1734 64.5,98.5C 61.1667,98.5 57.8333,98.5 54.5,98.5C 34.8791,93.4407 19.0458,82.774 7,66.5C 3.91131,60.9986 1.41131,55.3319 -0.5,49.5C -0.5,41.5 -0.5,33.5 -0.5,25.5C 3.00213,12.6651 11.0021,3.99847 23.5,-0.5 Z"/></g>
<g><path style="opacity:0.78" fill="#0d4aeb" d="M 47.5,24.5 C 48.8333,24.5 50.1667,24.5 51.5,24.5C 52.3239,35.8637 53.3239,47.197 54.5,58.5C 57.4459,59.6548 60.4459,59.8214 63.5,59C 66.7508,55.0783 70.5841,51.9117 75,49.5C 78.1211,51.7157 80.2878,54.7157 81.5,58.5C 92.4849,59.3324 103.485,59.8324 114.5,60C 116.592,60.9525 116.925,62.2859 115.5,64C 103.5,64.6667 91.5,64.6667 79.5,64C 77.1866,61.5754 75.5199,58.7421 74.5,55.5C 71.3489,58.1504 68.3489,60.9838 65.5,64C 62.7737,64.1816 60.1071,64.6816 57.5,65.5C 56.4533,69.7783 55.6199,74.1116 55,78.5C 53.9207,80.3937 52.5874,80.727 51,79.5C 50.3333,69.5 49.6667,59.5 49,49.5C 48.0971,54.432 46.9305,59.2653 45.5,64C 41.5853,64.2367 37.9187,63.4034 34.5,61.5C 30.86,63.0421 27.0267,63.7088 23,63.5C 20.1667,63.3333 17.3333,63.1667 14.5,63C 13.1667,62 13.1667,61 14.5,60C 21.5279,60.2652 28.1946,59.0985 34.5,56.5C 37.2037,57.5722 39.8704,58.5722 42.5,59.5C 44.2746,47.8522 45.9412,36.1855 47.5,24.5 Z"/></g>
</svg>
